<svg width="68" height="58" viewBox="0 0 68 58" xmlns="http://www.w3.org/2000/svg">

<rect x="0" y="0" width="68" height="58" fill="#fff"/>

<g stroke-linecap="round" fill-rule="evenodd" stroke="#000" stroke-width="0" fill="#e45f00" transform="translate(2,2)">
<path d="M 29.883 0.637 L 29.688 14.212 A 49.55 49.55 0 0 0 27.623 13.974 Q 26.495 13.869 25.494 13.836 A 27.049 27.049 0 0 0 24.609 13.821 A 18.162 18.162 0 0 0 20.847 14.181 Q 18.709 14.635 17.152 15.66 A 8.375 8.375 0 0 0 14.111 19.241 L 14.111 53.811 L 0 53.811 L 0 0.979 L 13.33 0.979 L 13.721 7.278 A 17.101 17.101 0 0 1 16.778 3.364 A 12.303 12.303 0 0 1 25.488 0.003 A 15.352 15.352 0 0 1 28.706 0.331 A 13.591 13.591 0 0 1 29.883 0.637 Z" vector-effect="non-scaling-stroke"/>
</g>
<g stroke-linecap="round" fill-rule="evenodd" stroke="#000" stroke-width="0" fill="#16597e" transform="translate(34,2)">
<path d="M 29.883 0.637 L 29.688 14.212 A 49.55 49.55 0 0 0 27.623 13.974 Q 26.495 13.869 25.494 13.836 A 27.049 27.049 0 0 0 24.609 13.821 A 18.162 18.162 0 0 0 20.847 14.181 Q 18.709 14.635 17.152 15.66 A 8.375 8.375 0 0 0 14.111 19.241 L 14.111 53.811 L 0 53.811 L 0 0.979 L 13.33 0.979 L 13.721 7.278 A 17.101 17.101 0 0 1 16.778 3.364 A 12.303 12.303 0 0 1 25.488 0.003 A 15.352 15.352 0 0 1 28.706 0.331 A 13.591 13.591 0 0 1 29.883 0.637 Z" vector-effect="non-scaling-stroke"/>
</g>
</svg>