<svg width="900" height="90" viewBox="0 0 900 90" xmlns="http://www.w3.org/2000/svg">

<rect x="0" y="0" width="445" height="90" fill="#e45f00"/>
<!-- VTT Blue=#16597e Orange=#e45f00  -->

<g stroke-linecap="round" fill-rule="evenodd" stroke="#000" stroke-width="0" fill="#fff" transform="translate(10, 4)">

<path d="M 95.752 75 L 82.178 53.809 L 77.1 58.887 L 77.1 75 L 62.988 75 L 62.988 0 L 77.1 0 L 77.1 41.553 L 79.834 38.037 L 93.359 22.168 L 110.303 22.168 L 91.211 44.189 L 111.963 75 L 95.752 75 Z M 212.207 38.232 L 198.096 38.232 A 7.69 7.69 0 0 0 197.708 35.744 A 6.537 6.537 0 0 0 196.143 33.228 A 5.943 5.943 0 0 0 193.921 31.841 Q 192.977 31.495 191.806 31.351 A 14.545 14.545 0 0 0 190.039 31.25 A 12.675 12.675 0 0 0 187.897 31.419 Q 185.841 31.772 184.521 32.861 A 5.413 5.413 0 0 0 183.12 34.565 A 5.177 5.177 0 0 0 182.568 36.963 A 4.148 4.148 0 0 0 184.078 40.213 A 6.248 6.248 0 0 0 184.79 40.747 A 10.149 10.149 0 0 0 186.281 41.526 Q 188.495 42.483 192.285 43.237 Q 197.559 44.287 201.172 45.605 A 22.738 22.738 0 0 1 206.323 48.208 Q 212.071 52.196 212.34 59.126 A 17.729 17.729 0 0 1 212.354 59.814 Q 212.354 67.041 206.152 71.509 A 22.58 22.58 0 0 1 198.289 75.059 Q 195.163 75.833 191.508 75.954 A 41.473 41.473 0 0 1 190.137 75.977 Q 183.496 75.977 178.345 73.608 A 21.721 21.721 0 0 1 173.498 70.596 A 18.277 18.277 0 0 1 170.264 67.114 A 15.661 15.661 0 0 1 167.721 61.593 A 14.82 14.82 0 0 1 167.334 58.203 L 180.713 58.203 A 9.178 9.178 0 0 0 181.179 60.727 A 6.816 6.816 0 0 0 183.496 63.965 A 9.017 9.017 0 0 0 186.687 65.512 Q 187.941 65.853 189.419 65.938 A 17.557 17.557 0 0 0 190.43 65.967 A 17.134 17.134 0 0 0 192.662 65.831 Q 195.098 65.51 196.558 64.429 Q 198.63 62.892 198.633 60.406 A 5.953 5.953 0 0 0 198.633 60.4 A 4.286 4.286 0 0 0 197.013 56.98 A 6.65 6.65 0 0 0 196.069 56.323 Q 193.506 54.834 187.842 53.662 Q 168.994 49.707 168.994 37.646 Q 168.994 30.615 174.829 25.903 A 20.446 20.446 0 0 1 183.023 21.969 Q 186.045 21.243 189.582 21.195 A 37.121 37.121 0 0 1 190.088 21.191 A 34.692 34.692 0 0 1 196.73 21.79 Q 202.29 22.875 206.177 25.928 A 15.96 15.96 0 0 1 210.404 30.802 Q 212.179 34.042 212.207 38.103 A 18.903 18.903 0 0 1 212.207 38.232 Z M 408.887 75 L 408.496 69.629 A 17.061 17.061 0 0 1 396.694 75.837 A 24.438 24.438 0 0 1 394.043 75.977 A 23.594 23.594 0 0 1 388.901 75.451 Q 385.512 74.694 383.023 72.848 A 13.642 13.642 0 0 1 381.079 71.094 A 15.823 15.823 0 0 1 377.795 65.353 Q 376.564 61.683 376.514 56.787 L 376.514 22.168 L 390.625 22.168 L 390.625 56.299 A 13.123 13.123 0 0 0 390.972 59.464 Q 392.241 64.551 398.145 64.551 A 15.996 15.996 0 0 0 401.821 64.158 Q 404.215 63.592 405.873 62.212 A 8.872 8.872 0 0 0 408.008 59.57 L 408.008 22.168 L 422.168 22.168 L 422.168 75 L 408.887 75 Z M 161.279 75 L 147.021 75 Q 146.191 73.38 145.749 71.089 A 22.86 22.86 0 0 1 145.605 70.264 A 16.879 16.879 0 0 1 133.289 75.954 A 22.758 22.758 0 0 1 132.275 75.977 A 22.071 22.071 0 0 1 126.198 75.177 A 17.343 17.343 0 0 1 119.409 71.484 A 14.366 14.366 0 0 1 114.329 61.054 A 17.717 17.717 0 0 1 114.307 60.156 A 18.007 18.007 0 0 1 115.146 54.515 A 14.265 14.265 0 0 1 120.532 47.266 A 20.938 20.938 0 0 1 126.505 44.349 Q 129.327 43.455 132.762 43.053 A 51.506 51.506 0 0 1 138.525 42.725 L 145.02 42.725 L 145.02 39.697 A 11.596 11.596 0 0 0 144.777 37.254 Q 144.425 35.622 143.564 34.387 A 7.007 7.007 0 0 0 143.14 33.838 A 5.807 5.807 0 0 0 140.529 32.123 Q 139.562 31.795 138.375 31.69 A 13.253 13.253 0 0 0 137.207 31.641 A 12.01 12.01 0 0 0 134.986 31.833 Q 133.721 32.072 132.721 32.604 A 6.304 6.304 0 0 0 131.616 33.35 A 5.589 5.589 0 0 0 129.639 37.137 A 7.951 7.951 0 0 0 129.59 38.037 L 115.479 38.037 A 14.168 14.168 0 0 1 118.288 29.572 A 17.271 17.271 0 0 1 118.311 29.541 Q 121.143 25.635 126.318 23.413 A 27.365 27.365 0 0 1 134.035 21.408 A 34.228 34.228 0 0 1 137.939 21.191 A 31.479 31.479 0 0 1 144.308 21.798 Q 149.722 22.917 153.442 26.099 A 16.009 16.009 0 0 1 158.854 35.883 A 23.615 23.615 0 0 1 159.18 39.893 L 159.18 62.793 A 45.237 45.237 0 0 0 159.366 66.733 Q 159.805 71.397 161.279 74.17 L 161.279 75 Z M 253.32 49.854 L 253.32 48.486 A 35.333 35.333 0 0 1 254.188 40.505 A 28.996 28.996 0 0 1 256.396 34.253 A 23.362 23.362 0 0 1 261.612 27.19 A 22.008 22.008 0 0 1 265.112 24.585 A 23.84 23.84 0 0 1 275.732 21.276 A 29.273 29.273 0 0 1 277.979 21.191 Q 288.818 21.191 295.044 28.027 Q 300.435 33.947 301.158 44.151 A 46.184 46.184 0 0 1 301.27 47.412 L 301.27 53.174 L 267.627 53.174 Q 268.311 58.35 271.753 61.475 Q 275.195 64.6 280.469 64.6 A 18.014 18.014 0 0 0 286.19 63.734 A 14.591 14.591 0 0 0 293.213 58.691 L 300.146 66.455 Q 296.973 70.947 291.553 73.462 A 27.302 27.302 0 0 1 282.171 75.873 A 32.808 32.808 0 0 1 279.541 75.977 Q 267.92 75.977 260.62 68.848 A 23.807 23.807 0 0 1 253.721 55.155 A 33.732 33.732 0 0 1 253.32 49.854 Z M 224.219 9.18 L 238.33 9.18 L 238.33 22.168 L 247.363 22.168 L 247.363 32.52 L 238.33 32.52 L 238.33 58.887 Q 238.33 61.489 239.216 62.781 A 3.13 3.13 0 0 0 239.453 63.086 A 3.015 3.015 0 0 0 240.522 63.833 Q 241.501 64.262 243.051 64.339 A 14.184 14.184 0 0 0 243.75 64.355 A 27.584 27.584 0 0 0 245.698 64.29 Q 246.884 64.206 247.9 64.014 L 247.9 74.707 A 29.05 29.05 0 0 1 239.355 75.977 A 21.214 21.214 0 0 1 233.376 75.207 Q 224.445 72.58 224.219 60.986 L 224.219 32.52 L 216.504 32.52 L 216.504 22.168 L 224.219 22.168 L 224.219 9.18 Z M 312.061 9.18 L 326.172 9.18 L 326.172 22.168 L 335.205 22.168 L 335.205 32.52 L 326.172 32.52 L 326.172 58.887 Q 326.172 61.489 327.058 62.781 A 3.13 3.13 0 0 0 327.295 63.086 A 3.015 3.015 0 0 0 328.363 63.833 Q 329.343 64.262 330.893 64.339 A 14.184 14.184 0 0 0 331.592 64.355 A 27.584 27.584 0 0 0 333.54 64.29 Q 334.726 64.206 335.742 64.014 L 335.742 74.707 A 29.05 29.05 0 0 1 327.197 75.977 A 21.214 21.214 0 0 1 321.218 75.207 Q 312.287 72.58 312.061 60.986 L 312.061 32.52 L 304.346 32.52 L 304.346 22.168 L 312.061 22.168 L 312.061 9.18 Z M 345.85 9.18 L 359.961 9.18 L 359.961 22.168 L 368.994 22.168 L 368.994 32.52 L 359.961 32.52 L 359.961 58.887 Q 359.961 61.489 360.847 62.781 A 3.13 3.13 0 0 0 361.084 63.086 A 3.015 3.015 0 0 0 362.152 63.833 Q 363.132 64.262 364.682 64.339 A 14.184 14.184 0 0 0 365.381 64.355 A 27.584 27.584 0 0 0 367.329 64.29 Q 368.515 64.206 369.531 64.014 L 369.531 74.707 A 29.05 29.05 0 0 1 360.986 75.977 A 21.214 21.214 0 0 1 355.007 75.207 Q 346.076 72.58 345.85 60.986 L 345.85 32.52 L 338.135 32.52 L 338.135 22.168 L 345.85 22.168 L 345.85 9.18 Z M 29.883 21.826 L 29.688 35.4 A 49.55 49.55 0 0 0 27.623 35.162 Q 26.495 35.057 25.494 35.025 A 27.049 27.049 0 0 0 24.609 35.01 A 18.162 18.162 0 0 0 20.847 35.37 Q 18.709 35.824 17.152 36.849 A 8.375 8.375 0 0 0 14.111 40.43 L 14.111 75 L 0 75 L 0 22.168 L 13.33 22.168 L 13.721 28.467 A 17.101 17.101 0 0 1 16.778 24.552 A 12.303 12.303 0 0 1 25.488 21.191 A 15.352 15.352 0 0 1 28.706 21.519 A 13.591 13.591 0 0 1 29.883 21.826 Z M 51.367 22.168 L 51.367 75 L 37.207 75 L 37.207 22.168 L 51.367 22.168 Z M 267.773 43.555 L 287.402 43.555 L 287.402 42.432 Q 287.327 38.82 285.861 36.47 A 8.012 8.012 0 0 0 284.863 35.181 Q 282.508 32.707 278.243 32.62 A 15.37 15.37 0 0 0 277.93 32.617 A 10.114 10.114 0 0 0 274.669 33.121 A 8.463 8.463 0 0 0 271.118 35.449 Q 268.94 37.811 268.068 41.871 A 23.32 23.32 0 0 0 267.773 43.555 Z M 145.02 60.059 L 145.02 50.977 L 139.746 50.977 A 22.914 22.914 0 0 0 135.851 51.279 Q 129.012 52.464 128.467 58.301 L 128.418 59.131 Q 128.418 61.768 130.273 63.477 A 6.19 6.19 0 0 0 132.959 64.903 Q 134.042 65.186 135.352 65.186 A 12.154 12.154 0 0 0 141.113 63.794 A 10.115 10.115 0 0 0 143.454 62.12 A 8.494 8.494 0 0 0 145.02 60.059 Z M 36.806 5.871 A 7.747 7.747 0 0 0 36.377 8.496 A 9.169 9.169 0 0 0 36.39 8.992 A 6.826 6.826 0 0 0 38.55 13.77 A 7.247 7.247 0 0 0 41.809 15.532 A 10.093 10.093 0 0 0 44.287 15.82 A 10.504 10.504 0 0 0 46.281 15.64 A 7.359 7.359 0 0 0 50.024 13.77 A 6.687 6.687 0 0 0 51.781 11.092 A 7.793 7.793 0 0 0 52.197 8.496 A 9.131 9.131 0 0 0 52.192 8.177 A 6.846 6.846 0 0 0 50.049 3.271 A 7.154 7.154 0 0 0 46.743 1.497 A 10.314 10.314 0 0 0 44.287 1.221 Q 42.971 1.221 41.854 1.486 A 7.067 7.067 0 0 0 38.501 3.271 A 6.726 6.726 0 0 0 36.806 5.871 Z" vector-effect="non-scaling-stroke"/></g>

<g stroke-linecap="round" fill-rule="evenodd" stroke="#000" stroke-width="0" fill="#16597e" transform="translate(454, 4)">

<path stroke="#16597e" fill="#16597e" opacity="0.2" stroke-width="8" d="M 0 84 L 410 84" />

<path d="M 418.848 37.012 L 404.736 37.012 A 7.69 7.69 0 0 0 404.349 34.524 A 6.537 6.537 0 0 0 402.783 32.007 A 5.943 5.943 0 0 0 400.562 30.621 Q 399.617 30.275 398.447 30.131 A 14.545 14.545 0 0 0 396.68 30.03 A 12.675 12.675 0 0 0 394.538 30.199 Q 392.482 30.552 391.162 31.641 A 5.413 5.413 0 0 0 389.76 33.345 A 5.177 5.177 0 0 0 389.209 35.743 A 4.148 4.148 0 0 0 390.718 38.992 A 6.248 6.248 0 0 0 391.431 39.527 A 10.149 10.149 0 0 0 392.922 40.306 Q 395.135 41.262 398.926 42.017 Q 404.199 43.067 407.813 44.385 A 22.738 22.738 0 0 1 412.964 46.988 Q 418.711 50.975 418.981 57.905 A 17.729 17.729 0 0 1 418.994 58.594 Q 418.994 65.821 412.793 70.288 A 22.58 22.58 0 0 1 404.93 73.839 Q 401.803 74.613 398.149 74.734 A 41.473 41.473 0 0 1 396.777 74.756 Q 390.137 74.756 384.985 72.388 A 21.721 21.721 0 0 1 380.139 69.376 A 18.277 18.277 0 0 1 376.904 65.894 A 15.661 15.661 0 0 1 374.361 60.372 A 14.82 14.82 0 0 1 373.975 56.983 L 387.354 56.983 A 9.178 9.178 0 0 0 387.82 59.507 A 6.816 6.816 0 0 0 390.137 62.744 A 9.017 9.017 0 0 0 393.328 64.292 Q 394.581 64.633 396.06 64.718 A 17.557 17.557 0 0 0 397.07 64.746 A 17.134 17.134 0 0 0 399.302 64.611 Q 401.739 64.29 403.198 63.208 Q 405.271 61.672 405.273 59.186 A 5.953 5.953 0 0 0 405.273 59.18 A 4.286 4.286 0 0 0 403.654 55.76 A 6.65 6.65 0 0 0 402.71 55.103 Q 400.146 53.614 394.482 52.442 Q 375.635 48.487 375.635 36.426 Q 375.635 29.395 381.47 24.683 A 20.446 20.446 0 0 1 389.664 20.749 Q 392.685 20.023 396.223 19.974 A 37.121 37.121 0 0 1 396.729 19.971 A 34.692 34.692 0 0 1 403.371 20.57 Q 408.931 21.655 412.817 24.707 A 15.96 15.96 0 0 1 417.044 29.581 Q 418.819 32.822 418.847 36.883 A 18.903 18.903 0 0 1 418.848 37.012 Z M 367.92 73.78 L 353.662 73.78 Q 352.831 72.16 352.389 69.869 A 22.86 22.86 0 0 1 352.246 69.043 A 16.879 16.879 0 0 1 339.929 74.734 A 22.758 22.758 0 0 1 338.916 74.756 A 22.071 22.071 0 0 1 332.839 73.957 A 17.343 17.343 0 0 1 326.05 70.264 A 14.366 14.366 0 0 1 320.97 59.833 A 17.717 17.717 0 0 1 320.947 58.936 A 18.007 18.007 0 0 1 321.787 53.295 A 14.265 14.265 0 0 1 327.173 46.045 A 20.938 20.938 0 0 1 333.146 43.129 Q 335.967 42.234 339.402 41.832 A 51.506 51.506 0 0 1 345.166 41.504 L 351.66 41.504 L 351.66 38.477 A 11.596 11.596 0 0 0 351.417 36.034 Q 351.066 34.402 350.205 33.167 A 7.007 7.007 0 0 0 349.78 32.618 A 5.807 5.807 0 0 0 347.17 30.903 Q 346.203 30.575 345.016 30.47 A 13.253 13.253 0 0 0 343.848 30.42 A 12.01 12.01 0 0 0 341.626 30.613 Q 340.361 30.851 339.361 31.384 A 6.304 6.304 0 0 0 338.257 32.129 A 5.589 5.589 0 0 0 336.28 35.917 A 7.951 7.951 0 0 0 336.23 36.817 L 322.119 36.817 A 14.168 14.168 0 0 1 324.929 28.351 A 17.271 17.271 0 0 1 324.951 28.321 Q 327.783 24.414 332.959 22.193 A 27.365 27.365 0 0 1 340.676 20.188 A 34.228 34.228 0 0 1 344.58 19.971 A 31.479 31.479 0 0 1 350.949 20.578 Q 356.363 21.696 360.083 24.878 A 16.009 16.009 0 0 1 365.495 34.663 A 23.615 23.615 0 0 1 365.82 38.672 L 365.82 61.573 A 45.237 45.237 0 0 0 366.006 65.513 Q 366.446 70.177 367.92 72.95 L 367.92 73.78 Z M 314.307 47.119 L 314.307 47.852 Q 314.307 57.593 310.778 64.24 A 23.729 23.729 0 0 1 308.765 67.408 Q 303.223 74.756 293.799 74.756 A 18.684 18.684 0 0 1 287.59 73.765 A 15.909 15.909 0 0 1 280.859 69.19 L 280.859 94.092 L 266.748 94.092 L 266.748 20.948 L 279.834 20.948 L 280.322 26.123 A 16.398 16.398 0 0 1 292.181 20.025 A 21.023 21.023 0 0 1 293.701 19.971 Q 303.467 19.971 308.887 27.198 Q 313.317 33.104 314.126 42.665 A 52.862 52.862 0 0 1 314.307 47.119 Z M 33.643 48.633 L 33.643 47.266 A 35.333 35.333 0 0 1 34.511 39.285 A 28.996 28.996 0 0 1 36.719 33.033 A 23.362 23.362 0 0 1 41.935 25.97 A 22.008 22.008 0 0 1 45.435 23.365 A 23.84 23.84 0 0 1 56.054 20.056 A 29.273 29.273 0 0 1 58.301 19.971 Q 69.141 19.971 75.366 26.807 Q 80.757 32.727 81.48 42.93 A 46.184 46.184 0 0 1 81.592 46.192 L 81.592 51.953 L 47.949 51.953 Q 48.633 57.129 52.075 60.254 Q 55.518 63.379 60.791 63.379 A 18.014 18.014 0 0 0 66.512 62.513 A 14.591 14.591 0 0 0 73.535 57.471 L 80.469 65.235 Q 77.295 69.727 71.875 72.242 A 27.302 27.302 0 0 1 62.493 74.652 A 32.808 32.808 0 0 1 59.863 74.756 Q 48.242 74.756 40.942 67.627 A 23.807 23.807 0 0 1 34.044 53.935 A 33.732 33.732 0 0 1 33.643 48.633 Z M 118.896 7.959 L 133.008 7.959 L 133.008 20.948 L 142.041 20.948 L 142.041 31.299 L 133.008 31.299 L 133.008 57.666 Q 133.008 60.268 133.894 61.561 A 3.13 3.13 0 0 0 134.131 61.866 A 3.015 3.015 0 0 0 135.199 62.612 Q 136.179 63.042 137.729 63.118 A 14.184 14.184 0 0 0 138.428 63.135 A 27.584 27.584 0 0 0 140.376 63.07 Q 141.562 62.986 142.578 62.793 L 142.578 73.487 A 29.05 29.05 0 0 1 134.033 74.756 A 21.214 21.214 0 0 1 128.054 73.987 Q 119.123 71.36 118.896 59.766 L 118.896 31.299 L 111.182 31.299 L 111.182 20.948 L 118.896 20.948 L 118.896 7.959 Z M 152.686 7.959 L 166.797 7.959 L 166.797 20.948 L 175.83 20.948 L 175.83 31.299 L 166.797 31.299 L 166.797 57.666 Q 166.797 60.268 167.683 61.561 A 3.13 3.13 0 0 0 167.92 61.866 A 3.015 3.015 0 0 0 168.988 62.612 Q 169.968 63.042 171.518 63.118 A 14.184 14.184 0 0 0 172.217 63.135 A 27.584 27.584 0 0 0 174.165 63.07 Q 175.351 62.986 176.367 62.793 L 176.367 73.487 A 29.05 29.05 0 0 1 167.822 74.756 A 21.214 21.214 0 0 1 161.843 73.987 Q 152.912 71.36 152.686 59.766 L 152.686 31.299 L 144.971 31.299 L 144.971 20.948 L 152.686 20.948 L 152.686 7.959 Z M 29.883 20.606 L 29.688 34.18 A 49.55 49.55 0 0 0 27.623 33.942 Q 26.495 33.837 25.494 33.804 A 27.049 27.049 0 0 0 24.609 33.789 A 18.162 18.162 0 0 0 20.847 34.15 Q 18.709 34.603 17.152 35.629 A 8.375 8.375 0 0 0 14.111 39.209 L 14.111 73.78 L 0 73.78 L 0 20.948 L 13.33 20.948 L 13.721 27.246 A 17.101 17.101 0 0 1 16.778 23.332 A 12.303 12.303 0 0 1 25.488 19.971 A 15.352 15.352 0 0 1 28.706 20.299 A 13.591 13.591 0 0 1 29.883 20.606 Z M 208.008 47.51 L 208.008 46.875 A 34.872 34.872 0 0 1 208.856 39.032 A 28.319 28.319 0 0 1 211.035 32.862 A 22.162 22.162 0 0 1 219.751 23.34 Q 225.439 19.971 232.959 19.971 A 28.564 28.564 0 0 1 240.999 21.051 A 22.36 22.36 0 0 1 250.415 26.514 Q 257.178 33.057 257.959 44.287 L 258.057 47.901 A 35.327 35.327 0 0 1 257.103 56.338 A 24.679 24.679 0 0 1 251.27 67.408 A 22.462 22.462 0 0 1 237.343 74.476 A 31.697 31.697 0 0 1 233.057 74.756 A 28.81 28.81 0 0 1 224.91 73.661 A 22.002 22.002 0 0 1 214.819 67.432 A 24.512 24.512 0 0 1 209.006 56.382 Q 208.008 52.333 208.008 47.51 Z M 104.492 20.948 L 104.492 73.78 L 90.332 73.78 L 90.332 20.948 L 104.492 20.948 Z M 198.584 20.948 L 198.584 73.78 L 184.424 73.78 L 184.424 20.948 L 198.584 20.948 Z M 222.119 47.901 A 32.026 32.026 0 0 0 222.389 52.205 Q 222.993 56.648 224.951 59.4 A 9.087 9.087 0 0 0 231.583 63.296 A 12.688 12.688 0 0 0 233.057 63.379 A 10.711 10.711 0 0 0 236.719 62.779 A 9.202 9.202 0 0 0 241.064 59.449 A 12.049 12.049 0 0 0 242.705 56.189 Q 243.776 53.045 243.922 48.388 A 48.156 48.156 0 0 0 243.945 46.875 A 30.516 30.516 0 0 0 243.664 42.591 Q 243.045 38.236 241.064 35.45 A 9.171 9.171 0 0 0 234.401 31.479 A 12.287 12.287 0 0 0 232.959 31.397 A 10.588 10.588 0 0 0 229.306 31.999 A 9.057 9.057 0 0 0 224.951 35.425 A 12.789 12.789 0 0 0 223.31 38.804 Q 222.119 42.423 222.119 47.901 Z M 280.859 36.524 L 280.859 58.155 A 8.803 8.803 0 0 0 287.109 63.073 A 13.647 13.647 0 0 0 290.088 63.379 Q 299.72 63.379 300.173 48.346 A 50.494 50.494 0 0 0 300.195 46.827 A 33.494 33.494 0 0 0 299.94 42.547 Q 299.379 38.202 297.583 35.45 A 8.707 8.707 0 0 0 294.614 32.576 Q 292.945 31.622 290.801 31.473 A 11.694 11.694 0 0 0 289.99 31.446 A 13.399 13.399 0 0 0 286.498 31.87 A 8.477 8.477 0 0 0 280.859 36.524 Z M 48.096 42.334 L 67.725 42.334 L 67.725 41.211 Q 67.649 37.6 66.183 35.249 A 8.012 8.012 0 0 0 65.186 33.96 Q 62.83 31.487 58.565 31.4 A 15.37 15.37 0 0 0 58.252 31.397 A 10.114 10.114 0 0 0 54.991 31.901 A 8.463 8.463 0 0 0 51.44 34.229 Q 49.262 36.591 48.391 40.651 A 23.32 23.32 0 0 0 48.096 42.334 Z M 351.66 58.838 L 351.66 49.756 L 346.387 49.756 A 22.914 22.914 0 0 0 342.491 50.058 Q 335.652 51.244 335.107 57.08 L 335.059 57.91 Q 335.059 60.547 336.914 62.256 A 6.19 6.19 0 0 0 339.599 63.683 Q 340.683 63.965 341.992 63.965 A 12.154 12.154 0 0 0 347.754 62.574 A 10.115 10.115 0 0 0 350.094 60.9 A 8.494 8.494 0 0 0 351.66 58.838 Z M 89.931 4.651 A 7.747 7.747 0 0 0 89.502 7.276 A 9.169 9.169 0 0 0 89.515 7.772 A 6.826 6.826 0 0 0 91.675 12.549 A 7.247 7.247 0 0 0 94.934 14.312 A 10.093 10.093 0 0 0 97.412 14.6 A 10.504 10.504 0 0 0 99.406 14.419 A 7.359 7.359 0 0 0 103.149 12.549 A 6.687 6.687 0 0 0 104.906 9.871 A 7.793 7.793 0 0 0 105.322 7.276 A 9.131 9.131 0 0 0 105.317 6.956 A 6.846 6.846 0 0 0 103.174 2.051 A 7.154 7.154 0 0 0 99.868 0.277 A 10.314 10.314 0 0 0 97.412 0 Q 96.096 0 94.979 0.265 A 7.067 7.067 0 0 0 91.626 2.051 A 6.726 6.726 0 0 0 89.931 4.651 Z M 184.022 4.651 A 7.747 7.747 0 0 0 183.594 7.276 A 9.169 9.169 0 0 0 183.607 7.772 A 6.826 6.826 0 0 0 185.767 12.549 A 7.247 7.247 0 0 0 189.026 14.312 A 10.093 10.093 0 0 0 191.504 14.6 A 10.504 10.504 0 0 0 193.498 14.419 A 7.359 7.359 0 0 0 197.241 12.549 A 6.687 6.687 0 0 0 198.998 9.871 A 7.793 7.793 0 0 0 199.414 7.276 A 9.131 9.131 0 0 0 199.409 6.956 A 6.846 6.846 0 0 0 197.266 2.051 A 7.154 7.154 0 0 0 193.96 0.277 A 10.314 10.314 0 0 0 191.504 0 Q 190.188 0 189.07 0.265 A 7.067 7.067 0 0 0 185.718 2.051 A 6.726 6.726 0 0 0 184.022 4.651 Z" vector-effect="non-scaling-stroke"/></g>
</svg>