<svg width="360" height="180" viewBox="0 0 360 180" xmlns="http://www.w3.org/2000/svg">

<defs>
<linearGradient id="gradient" gradientTransform="rotate(90)">
	<stop offset="5%" stop-color="#e45f00" />
	<stop offset="95%" stop-color="#16597e" />
</linearGradient>
</defs>
<!-- VTT Blue=#16597e Orange=#e45f00 -->
<g stroke-linecap="round" fill-rule="evenodd" font-size="9pt" stroke="#000" stroke-width="0.5mm" fill="url(#gradient)" transform="translate(0,2)">
<path d="M 80.3 25.1 L 89.5 25.1 Q 85.3 32.3 81.45 38.25 A 247.558 247.558 0 0 1 75.763 46.669 A 214.276 214.276 0 0 1 73.8 49.4 A 81.948 81.948 0 0 1 76.532 52.771 A 103.156 103.156 0 0 1 78.7 55.7 Q 81.2 59.2 83.5 62.95 Q 85.8 66.7 87.8 70.45 A 87.351 87.351 0 0 1 89.963 74.78 A 70.241 70.241 0 0 1 91.2 77.6 L 81.8 77.6 A 89.734 89.734 0 0 0 79.73 73.358 A 108.583 108.583 0 0 0 78.3 70.7 Q 76.3 67.1 74.1 63.65 Q 71.9 60.2 69.7 57.1 A 74.44 74.44 0 0 0 68.092 54.916 Q 67.277 53.851 66.507 52.939 A 40.127 40.127 0 0 0 65.6 51.9 L 65.6 77.6 L 57 77.6 L 57 1.5 L 65.6 0 L 65.6 47.7 Q 67.4 45.3 69.45 42.3 Q 71.5 39.3 73.5 36.25 Q 75.5 33.2 77.3 30.3 Q 78.847 27.808 79.951 25.759 A 56.464 56.464 0 0 0 80.3 25.1 Z M 349.1 25.1 L 349.1 76.1 A 19.304 19.304 0 0 1 348.048 76.468 Q 347.106 76.769 345.95 77.05 A 55.487 55.487 0 0 1 343.062 77.669 A 63.318 63.318 0 0 1 342.05 77.85 Q 340 78.2 337.95 78.45 Q 335.9 78.7 334.2 78.7 A 30.771 30.771 0 0 1 329.809 78.399 A 24.577 24.577 0 0 1 326.7 77.75 Q 323.3 76.8 320.9 74.4 Q 318.663 72.163 317.382 68.407 A 23.305 23.305 0 0 1 317.2 67.85 A 25.16 25.16 0 0 1 316.383 64.28 Q 315.9 61.239 315.9 57.4 L 315.9 25.1 L 324.5 25.1 L 324.5 57.1 Q 324.5 63.231 325.99 66.477 A 8.114 8.114 0 0 0 326.85 67.95 A 7.563 7.563 0 0 0 331.494 70.851 A 11.893 11.893 0 0 0 334 71.1 Q 335.6 71.1 337.2 70.95 A 16.849 16.849 0 0 0 339.656 70.528 A 19.605 19.605 0 0 0 340.5 70.3 L 340.5 25.1 L 349.1 25.1 Z M 185.2 9.5 L 185.2 25.1 L 198.4 25.1 L 198.4 32.5 L 185.2 32.5 L 185.2 61.4 Q 185.2 65.827 186.511 68.07 A 5.239 5.239 0 0 0 187.15 68.95 A 6.433 6.433 0 0 0 191.21 71.024 A 9.07 9.07 0 0 0 192.4 71.1 Q 194.1 71.1 195.65 70.6 A 13.775 13.775 0 0 0 197.004 70.087 Q 197.671 69.792 198.226 69.446 A 8.371 8.371 0 0 0 198.3 69.4 L 200 76.3 Q 195.9 78.7 191.3 78.7 A 20.925 20.925 0 0 1 187.053 78.297 Q 182.763 77.407 180.25 74.55 A 12.031 12.031 0 0 1 178.098 70.863 Q 176.6 66.95 176.6 60.8 L 176.6 11 L 185.2 9.5 Z M 260.4 9.5 L 260.4 25.1 L 273.6 25.1 L 273.6 32.5 L 260.4 32.5 L 260.4 61.4 Q 260.4 65.827 261.711 68.07 A 5.239 5.239 0 0 0 262.35 68.95 A 6.433 6.433 0 0 0 266.41 71.024 A 9.07 9.07 0 0 0 267.6 71.1 Q 269.3 71.1 270.85 70.6 A 13.775 13.775 0 0 0 272.204 70.087 Q 272.871 69.792 273.426 69.446 A 8.371 8.371 0 0 0 273.5 69.4 L 275.2 76.3 Q 271.1 78.7 266.5 78.7 A 20.925 20.925 0 0 1 262.253 78.297 Q 257.963 77.407 255.45 74.55 A 12.031 12.031 0 0 1 253.298 70.863 Q 251.8 66.95 251.8 60.8 L 251.8 11 L 260.4 9.5 Z M 292.5 9.5 L 292.5 25.1 L 305.7 25.1 L 305.7 32.5 L 292.5 32.5 L 292.5 61.4 Q 292.5 65.827 293.811 68.07 A 5.239 5.239 0 0 0 294.45 68.95 A 6.433 6.433 0 0 0 298.51 71.024 A 9.07 9.07 0 0 0 299.7 71.1 Q 301.4 71.1 302.95 70.6 A 13.775 13.775 0 0 0 304.304 70.087 Q 304.971 69.792 305.526 69.446 A 8.371 8.371 0 0 0 305.6 69.4 L 307.3 76.3 Q 303.2 78.7 298.6 78.7 A 20.925 20.925 0 0 1 294.353 78.297 Q 290.063 77.407 287.55 74.55 A 12.031 12.031 0 0 1 285.398 70.863 Q 283.9 66.95 283.9 60.8 L 283.9 11 L 292.5 9.5 Z M 164.7 26.2 L 162.8 33.1 A 17.307 17.307 0 0 0 160.325 31.961 A 15.021 15.021 0 0 0 159.2 31.6 A 13.746 13.746 0 0 0 156.583 31.149 A 16.525 16.525 0 0 0 155.3 31.1 A 8.952 8.952 0 0 0 153.104 31.355 A 6.285 6.285 0 0 0 150.2 32.95 A 5.95 5.95 0 0 0 148.644 35.619 Q 148.37 36.568 148.314 37.707 A 12.133 12.133 0 0 0 148.3 38.3 A 9.592 9.592 0 0 0 148.434 39.945 Q 148.606 40.934 149 41.75 Q 149.7 43.2 150.85 44.35 A 18.165 18.165 0 0 0 152.917 46.12 A 20.588 20.588 0 0 0 153.45 46.5 Q 154.9 47.5 156.5 48.4 Q 158.4 49.5 160.25 50.8 Q 162.1 52.1 163.55 53.85 Q 165 55.6 165.9 57.95 A 12.741 12.741 0 0 1 166.546 60.362 Q 166.8 61.847 166.8 63.6 A 19.087 19.087 0 0 1 166.206 68.487 A 13.905 13.905 0 0 1 162.75 74.7 Q 159.143 78.441 152.562 78.85 A 26.784 26.784 0 0 1 150.9 78.9 A 25.051 25.051 0 0 1 146.988 78.608 A 19.43 19.43 0 0 1 143.7 77.8 Q 140.5 76.7 138.9 75.8 L 140.7 68.7 A 23.797 23.797 0 0 0 141.74 69.22 Q 142.956 69.793 144.638 70.456 A 74.968 74.968 0 0 0 144.75 70.5 A 14.515 14.515 0 0 0 148.608 71.412 A 17.814 17.814 0 0 0 150.4 71.5 Q 154.2 71.5 156.15 69.35 A 7.347 7.347 0 0 0 157.9 65.804 A 10.536 10.536 0 0 0 158.1 63.7 A 10.152 10.152 0 0 0 157.968 62.02 Q 157.802 61.032 157.428 60.213 A 6.128 6.128 0 0 0 157.3 59.95 Q 156.5 58.4 155.2 57.2 Q 153.9 56 152.2 55.05 Q 150.5 54.1 148.8 53 A 23.817 23.817 0 0 1 145.7 50.817 A 26.224 26.224 0 0 1 145.5 50.65 Q 143.9 49.3 142.65 47.55 A 14.462 14.462 0 0 1 141.029 44.577 A 16.996 16.996 0 0 1 140.65 43.55 Q 139.947 41.441 139.903 38.672 A 23.445 23.445 0 0 1 139.9 38.3 Q 139.9 31.8 143.95 27.8 A 13.515 13.515 0 0 1 150.864 24.191 A 19.795 19.795 0 0 1 154.9 23.8 A 20.099 20.099 0 0 1 159.497 24.314 A 18.381 18.381 0 0 1 160.4 24.55 Q 162.391 25.124 163.854 25.786 A 15.237 15.237 0 0 1 164.7 26.2 Z M 239.6 53.9 L 214.7 53.9 A 48.678 48.678 0 0 0 214.959 57.862 A 37.686 37.686 0 0 0 215.4 60.85 A 19.958 19.958 0 0 0 216.218 63.886 A 15.458 15.458 0 0 0 217.35 66.35 Q 218.7 68.7 220.95 70 A 8.989 8.989 0 0 0 223.334 70.933 Q 224.417 71.197 225.682 71.271 A 17.399 17.399 0 0 0 226.7 71.3 Q 229.6 71.3 232.05 70.45 Q 234.5 69.6 235.6 69 L 237.2 75.9 A 8.423 8.423 0 0 1 236.33 76.418 Q 235.042 77.095 232.85 77.85 A 18.089 18.089 0 0 1 229.738 78.604 Q 228.191 78.844 226.43 78.889 A 32.245 32.245 0 0 1 225.6 78.9 A 25.097 25.097 0 0 1 221.495 78.582 Q 218.606 78.103 216.35 76.9 Q 212.6 74.9 210.25 71.3 A 21.895 21.895 0 0 1 207.935 66.531 A 28.624 28.624 0 0 1 206.9 62.7 A 50.49 50.49 0 0 1 206.091 56.759 A 64.551 64.551 0 0 1 205.9 51.7 A 69.626 69.626 0 0 1 206.269 44.257 Q 207.231 35.342 210.7 30.5 Q 215.5 23.8 223.4 23.8 A 18.358 18.358 0 0 1 228.341 24.422 A 12.172 12.172 0 0 1 236 30.5 A 25.372 25.372 0 0 1 238.25 36.267 Q 238.975 38.997 239.338 42.255 A 63.908 63.908 0 0 1 239.7 49.3 L 239.7 51.55 Q 239.7 52.7 239.6 53.9 Z M 102.3 33.5 L 100.5 26.2 Q 103.1 25.1 106 24.45 A 26.692 26.692 0 0 1 109.82 23.891 A 32.78 32.78 0 0 1 112.3 23.8 A 18.384 18.384 0 0 1 117.558 24.518 A 14.472 14.472 0 0 1 123.7 28.15 A 13.296 13.296 0 0 1 126.821 33.191 Q 127.581 35.298 127.889 37.903 A 32.338 32.338 0 0 1 128.1 41.7 L 128.1 76.5 Q 124.5 77.5 120.75 78.1 A 46.51 46.51 0 0 1 113.456 78.7 A 43.484 43.484 0 0 1 113.4 78.7 A 25.536 25.536 0 0 1 108.56 78.255 A 22.332 22.332 0 0 1 106.65 77.8 A 14.756 14.756 0 0 1 102.059 75.611 A 13.952 13.952 0 0 1 101.15 74.9 A 14.1 14.1 0 0 1 97.861 70.777 A 16.669 16.669 0 0 1 97.4 69.85 A 14.353 14.353 0 0 1 96.395 66.694 Q 96 64.738 96 62.4 A 22.809 22.809 0 0 1 96.239 59.013 Q 96.527 57.095 97.163 55.467 A 14.09 14.09 0 0 1 97.25 55.25 A 15.008 15.008 0 0 1 99.241 51.753 A 13.237 13.237 0 0 1 100.7 50.15 A 14.553 14.553 0 0 1 105.713 47.117 A 16.618 16.618 0 0 1 105.9 47.05 A 18.914 18.914 0 0 1 110.893 46.05 A 22.299 22.299 0 0 1 112.4 46 Q 115.648 46 119.575 46.775 A 51.204 51.204 0 0 1 119.7 46.8 L 119.7 42 Q 119.7 36.2 117.45 33.9 A 7.273 7.273 0 0 0 114.144 31.994 Q 112.739 31.6 111 31.6 Q 108.7 31.6 106.65 32.05 Q 104.6 32.5 102.3 33.5 Z M 24.2 25.5 L 22.7 32.9 A 16.671 16.671 0 0 0 17.922 31.637 A 20.893 20.893 0 0 0 15.5 31.5 A 18.564 18.564 0 0 0 10.024 32.293 A 17.149 17.149 0 0 0 8.6 32.8 L 8.6 77.6 L 0 77.6 L 0 27.4 A 31.036 31.036 0 0 1 3.426 26.003 A 40.923 40.923 0 0 1 6.65 25.05 A 30.722 30.722 0 0 1 11.499 24.245 A 38.717 38.717 0 0 1 14.9 24.1 Q 17.3 24.1 19.7 24.4 A 19.728 19.728 0 0 1 23.402 25.218 A 17.839 17.839 0 0 1 24.2 25.5 Z M 41.4 25.1 L 41.4 77.6 L 32.8 77.6 L 32.8 25.1 L 41.4 25.1 Z M 119.7 70.6 L 119.7 53.9 A 23.194 23.194 0 0 0 114.709 53.12 A 21.213 21.213 0 0 0 113.8 53.1 Q 111.9 53.1 110.2 53.55 A 7.756 7.756 0 0 0 108.01 54.493 A 7.094 7.094 0 0 0 107.25 55.05 A 6.47 6.47 0 0 0 105.791 56.825 A 8.297 8.297 0 0 0 105.3 57.85 Q 104.756 59.21 104.635 61.145 A 18.498 18.498 0 0 0 104.6 62.3 A 14 14 0 0 0 104.812 64.82 Q 105.313 67.553 107 69.1 A 7.843 7.843 0 0 0 110.114 70.817 Q 111.738 71.3 113.8 71.3 Q 116.5 71.3 119.7 70.6 Z M 214.8 46.9 L 230.7 46.9 A 58.08 58.08 0 0 0 230.554 42.635 Q 230.242 38.417 229.268 35.546 A 17.026 17.026 0 0 0 229.2 35.35 A 7.6 7.6 0 0 0 228.099 33.248 Q 226.637 31.335 224.052 31.126 A 8.078 8.078 0 0 0 223.4 31.1 A 6.634 6.634 0 0 0 220.347 31.783 Q 218.323 32.813 217.15 35.4 Q 215.738 38.513 215.139 43.145 A 51.639 51.639 0 0 0 214.8 46.9 Z M 37.1 15.8 Q 34.8 15.8 33.15 14.25 A 5.145 5.145 0 0 1 31.569 11.122 A 7.274 7.274 0 0 1 31.5 10.1 A 6.63 6.63 0 0 1 31.742 8.263 A 5.016 5.016 0 0 1 33.15 5.95 Q 34.8 4.4 37.1 4.4 Q 39.4 4.4 41.05 5.95 A 5.145 5.145 0 0 1 42.631 9.078 A 7.274 7.274 0 0 1 42.7 10.1 A 6.63 6.63 0 0 1 42.458 11.937 A 5.016 5.016 0 0 1 41.05 14.25 Q 39.4 15.8 37.1 15.8 Z" vector-effect="non-scaling-stroke"/>
</g>
<g stroke-linecap="round" fill-rule="evenodd" font-size="9pt" stroke="#000" stroke-width="0.5mm" fill="url(#gradient)" transform="translate(0,84)">

<path d="M 107.6 5.101 L 107.6 20.701 L 120.8 20.701 L 120.8 28.101 L 107.6 28.101 L 107.6 57.001 Q 107.6 61.428 108.911 63.671 A 5.239 5.239 0 0 0 109.55 64.551 A 6.433 6.433 0 0 0 113.61 66.625 A 9.07 9.07 0 0 0 114.8 66.701 Q 116.5 66.701 118.05 66.201 A 13.775 13.775 0 0 0 119.404 65.688 Q 120.071 65.392 120.626 65.047 A 8.371 8.371 0 0 0 120.7 65.001 L 122.4 71.901 Q 118.3 74.301 113.7 74.301 A 20.925 20.925 0 0 1 109.453 73.898 Q 105.163 73.008 102.65 70.151 A 12.031 12.031 0 0 1 100.498 66.464 Q 99 62.551 99 56.401 L 99 6.601 L 107.6 5.101 Z M 139.7 5.101 L 139.7 20.701 L 152.9 20.701 L 152.9 28.101 L 139.7 28.101 L 139.7 57.001 Q 139.7 61.428 141.011 63.671 A 5.239 5.239 0 0 0 141.65 64.551 A 6.433 6.433 0 0 0 145.71 66.625 A 9.07 9.07 0 0 0 146.9 66.701 Q 148.6 66.701 150.15 66.201 A 13.775 13.775 0 0 0 151.504 65.688 Q 152.171 65.392 152.726 65.047 A 8.371 8.371 0 0 0 152.8 65.001 L 154.5 71.901 Q 150.4 74.301 145.8 74.301 A 20.925 20.925 0 0 1 141.553 73.898 Q 137.263 73.008 134.75 70.151 A 12.031 12.031 0 0 1 132.598 66.464 Q 131.1 62.551 131.1 56.401 L 131.1 6.601 L 139.7 5.101 Z M 242.8 72.801 L 242.8 91.701 L 234.2 91.701 L 234.2 22.101 A 30.252 30.252 0 0 1 237.587 20.893 A 39.381 39.381 0 0 1 240.55 20.151 Q 244.1 19.401 247.8 19.401 A 26.673 26.673 0 0 1 252.24 19.752 Q 254.997 20.217 257.25 21.301 Q 261.2 23.201 263.65 26.751 A 21.517 21.517 0 0 1 265.968 31.181 A 29.406 29.406 0 0 1 267.25 35.451 Q 268.4 40.601 268.4 47.201 A 67.112 67.112 0 0 1 268.025 54.542 Q 267.138 62.579 264.15 67.501 A 13.997 13.997 0 0 1 253.979 74.212 A 22.336 22.336 0 0 1 250.3 74.501 A 20.168 20.168 0 0 1 248.254 74.402 Q 247.225 74.297 246.32 74.08 A 12.47 12.47 0 0 1 246.2 74.051 Q 244.4 73.601 242.8 72.801 Z M 346 21.801 L 344.1 28.701 A 17.307 17.307 0 0 0 341.625 27.562 A 15.021 15.021 0 0 0 340.5 27.201 A 13.746 13.746 0 0 0 337.883 26.75 A 16.525 16.525 0 0 0 336.6 26.701 A 8.952 8.952 0 0 0 334.404 26.956 A 6.285 6.285 0 0 0 331.5 28.551 A 5.95 5.95 0 0 0 329.944 31.219 Q 329.67 32.169 329.614 33.308 A 12.133 12.133 0 0 0 329.6 33.901 A 9.592 9.592 0 0 0 329.734 35.546 Q 329.906 36.535 330.3 37.351 Q 331 38.801 332.15 39.951 A 18.165 18.165 0 0 0 334.217 41.721 A 20.588 20.588 0 0 0 334.75 42.101 Q 336.2 43.101 337.8 44.001 Q 339.7 45.101 341.55 46.401 Q 343.4 47.701 344.85 49.451 Q 346.3 51.201 347.2 53.551 A 12.741 12.741 0 0 1 347.846 55.963 Q 348.1 57.448 348.1 59.201 A 19.087 19.087 0 0 1 347.506 64.088 A 13.905 13.905 0 0 1 344.05 70.301 Q 340.443 74.041 333.862 74.451 A 26.784 26.784 0 0 1 332.2 74.501 A 25.051 25.051 0 0 1 328.288 74.208 A 19.43 19.43 0 0 1 325 73.401 Q 321.8 72.301 320.2 71.401 L 322 64.301 A 23.797 23.797 0 0 0 323.04 64.82 Q 324.256 65.394 325.938 66.057 A 74.968 74.968 0 0 0 326.05 66.101 A 14.515 14.515 0 0 0 329.908 67.013 A 17.814 17.814 0 0 0 331.7 67.101 Q 335.5 67.101 337.45 64.951 A 7.347 7.347 0 0 0 339.2 61.404 A 10.536 10.536 0 0 0 339.4 59.301 A 10.152 10.152 0 0 0 339.268 57.621 Q 339.102 56.633 338.728 55.814 A 6.128 6.128 0 0 0 338.6 55.551 Q 337.8 54.001 336.5 52.801 Q 335.2 51.601 333.5 50.651 Q 331.8 49.701 330.1 48.601 A 23.817 23.817 0 0 1 327 46.418 A 26.224 26.224 0 0 1 326.8 46.251 Q 325.2 44.901 323.95 43.151 A 14.462 14.462 0 0 1 322.329 40.178 A 16.996 16.996 0 0 1 321.95 39.151 Q 321.247 37.041 321.203 34.273 A 23.445 23.445 0 0 1 321.2 33.901 Q 321.2 27.401 325.25 23.401 A 13.515 13.515 0 0 1 332.164 19.792 A 19.795 19.795 0 0 1 336.2 19.401 A 20.099 20.099 0 0 1 340.797 19.915 A 18.381 18.381 0 0 1 341.7 20.151 Q 343.691 20.725 345.154 21.387 A 15.237 15.237 0 0 1 346 21.801 Z M 62.6 49.501 L 37.7 49.501 A 48.678 48.678 0 0 0 37.959 53.463 A 37.686 37.686 0 0 0 38.4 56.451 A 19.958 19.958 0 0 0 39.218 59.487 A 15.458 15.458 0 0 0 40.35 61.951 Q 41.7 64.301 43.95 65.601 A 8.989 8.989 0 0 0 46.334 66.534 Q 47.417 66.798 48.682 66.872 A 17.399 17.399 0 0 0 49.7 66.901 Q 52.6 66.901 55.05 66.051 Q 57.5 65.201 58.6 64.601 L 60.2 71.501 A 8.423 8.423 0 0 1 59.33 72.019 Q 58.042 72.696 55.85 73.451 A 18.089 18.089 0 0 1 52.738 74.204 Q 51.191 74.445 49.43 74.49 A 32.245 32.245 0 0 1 48.6 74.501 A 25.097 25.097 0 0 1 44.495 74.183 Q 41.606 73.704 39.35 72.501 Q 35.6 70.501 33.25 66.901 A 21.895 21.895 0 0 1 30.935 62.132 A 28.624 28.624 0 0 1 29.9 58.301 A 50.49 50.49 0 0 1 29.091 52.359 A 64.551 64.551 0 0 1 28.9 47.301 A 69.626 69.626 0 0 1 29.269 39.858 Q 30.231 30.943 33.7 26.101 Q 38.5 19.401 46.4 19.401 A 18.358 18.358 0 0 1 51.341 20.023 A 12.172 12.172 0 0 1 59 26.101 A 25.372 25.372 0 0 1 61.25 31.868 Q 61.975 34.597 62.338 37.855 A 63.908 63.908 0 0 1 62.7 44.901 L 62.7 47.151 Q 62.7 48.301 62.6 49.501 Z M 283.6 29.101 L 281.8 21.801 Q 284.4 20.701 287.3 20.051 A 26.692 26.692 0 0 1 291.12 19.492 A 32.78 32.78 0 0 1 293.6 19.401 A 18.384 18.384 0 0 1 298.858 20.119 A 14.472 14.472 0 0 1 305 23.751 A 13.296 13.296 0 0 1 308.121 28.791 Q 308.881 30.899 309.189 33.504 A 32.338 32.338 0 0 1 309.4 37.301 L 309.4 72.101 Q 305.8 73.101 302.05 73.701 A 46.51 46.51 0 0 1 294.756 74.301 A 43.484 43.484 0 0 1 294.7 74.301 A 25.536 25.536 0 0 1 289.86 73.856 A 22.332 22.332 0 0 1 287.95 73.401 A 14.756 14.756 0 0 1 283.359 71.212 A 13.952 13.952 0 0 1 282.45 70.501 A 14.1 14.1 0 0 1 279.161 66.378 A 16.669 16.669 0 0 1 278.7 65.451 A 14.353 14.353 0 0 1 277.695 62.295 Q 277.3 60.338 277.3 58.001 A 22.809 22.809 0 0 1 277.539 54.614 Q 277.827 52.695 278.463 51.068 A 14.09 14.09 0 0 1 278.55 50.851 A 15.008 15.008 0 0 1 280.541 47.353 A 13.237 13.237 0 0 1 282 45.751 A 14.553 14.553 0 0 1 287.013 42.717 A 16.618 16.618 0 0 1 287.2 42.651 A 18.914 18.914 0 0 1 292.193 41.651 A 22.299 22.299 0 0 1 293.7 41.601 Q 296.948 41.601 300.875 42.376 A 51.204 51.204 0 0 1 301 42.401 L 301 37.601 Q 301 31.801 298.75 29.501 A 7.273 7.273 0 0 0 295.444 27.595 Q 294.039 27.201 292.3 27.201 Q 290 27.201 287.95 27.651 Q 285.9 28.101 283.6 29.101 Z M 24.2 21.101 L 22.7 28.501 A 16.671 16.671 0 0 0 17.922 27.238 A 20.893 20.893 0 0 0 15.5 27.101 A 18.564 18.564 0 0 0 10.024 27.894 A 17.149 17.149 0 0 0 8.6 28.401 L 8.6 73.201 L 0 73.201 L 0 23.001 A 31.036 31.036 0 0 1 3.426 21.604 A 40.923 40.923 0 0 1 6.65 20.651 A 30.722 30.722 0 0 1 11.499 19.846 A 38.717 38.717 0 0 1 14.9 19.701 Q 17.3 19.701 19.7 20.001 A 19.728 19.728 0 0 1 23.402 20.818 A 17.839 17.839 0 0 1 24.2 21.101 Z M 221.7 47.001 Q 221.7 53.201 220.6 58.251 A 31.909 31.909 0 0 1 219.316 62.667 A 23.602 23.602 0 0 1 217.25 66.901 A 16.752 16.752 0 0 1 213.249 71.363 A 15.766 15.766 0 0 1 211.55 72.501 A 14.646 14.646 0 0 1 206.484 74.264 A 19.389 19.389 0 0 1 203.4 74.501 A 18.713 18.713 0 0 1 199.257 74.061 A 14.651 14.651 0 0 1 195.2 72.501 Q 191.7 70.501 189.45 66.901 Q 187.2 63.301 186.1 58.251 A 46.905 46.905 0 0 1 185.218 52.295 A 61.743 61.743 0 0 1 185 47.001 A 58.986 58.986 0 0 1 185.348 40.455 A 46.632 46.632 0 0 1 186.1 35.801 Q 187.2 30.701 189.45 27.051 Q 191.7 23.401 195.2 21.401 Q 198.7 19.401 203.4 19.401 A 18.569 18.569 0 0 1 207.528 19.839 A 14.29 14.29 0 0 1 211.55 21.401 Q 215 23.401 217.25 27.051 Q 219.5 30.701 220.6 35.801 A 48.333 48.333 0 0 1 221.518 42.21 A 61.257 61.257 0 0 1 221.7 47.001 Z M 84 20.701 L 84 73.201 L 75.4 73.201 L 75.4 20.701 L 84 20.701 Z M 172.4 20.701 L 172.4 73.201 L 163.8 73.201 L 163.8 20.701 L 172.4 20.701 Z M 242.8 27.701 L 242.8 65.301 Q 245.7 66.901 249 66.901 A 10.597 10.597 0 0 0 251.333 66.655 A 8.361 8.361 0 0 0 253.4 65.901 A 7.258 7.258 0 0 0 255.363 64.364 Q 256.059 63.607 256.65 62.601 A 13.453 13.453 0 0 0 257.623 60.53 Q 258.279 58.787 258.7 56.501 A 37.13 37.13 0 0 0 259.127 53.398 Q 259.289 51.737 259.355 49.829 A 79.076 79.076 0 0 0 259.4 47.101 Q 259.4 36.301 256.65 31.651 A 8.977 8.977 0 0 0 250.203 27.193 A 13.219 13.219 0 0 0 247.9 27.001 Q 246.8 27.001 245.5 27.151 A 16.061 16.061 0 0 0 243.665 27.475 A 18.893 18.893 0 0 0 242.8 27.701 Z M 212.7 47.001 Q 212.7 42.601 212.2 38.951 A 31.568 31.568 0 0 0 211.648 35.948 Q 211.299 34.48 210.825 33.221 A 18.251 18.251 0 0 0 210.6 32.651 Q 209.5 30.001 207.7 28.551 A 6.539 6.539 0 0 0 203.863 27.114 A 8.296 8.296 0 0 0 203.4 27.101 Q 200.8 27.101 199.05 28.551 Q 197.404 29.914 196.289 32.339 A 15.807 15.807 0 0 0 196.15 32.651 A 19.917 19.917 0 0 0 195.188 35.453 Q 194.812 36.867 194.567 38.484 A 33.997 33.997 0 0 0 194.5 38.951 Q 194 42.601 194 47.001 Q 194 51.401 194.5 55.051 Q 195 58.701 196.15 61.301 A 13.34 13.34 0 0 0 197.249 63.323 Q 197.995 64.439 198.911 65.233 A 8.205 8.205 0 0 0 199.05 65.351 A 6.245 6.245 0 0 0 202.228 66.721 A 8.358 8.358 0 0 0 203.4 66.801 A 7.202 7.202 0 0 0 205.792 66.415 A 6.376 6.376 0 0 0 207.7 65.351 A 8.94 8.94 0 0 0 209.547 63.29 A 12.318 12.318 0 0 0 210.6 61.301 A 19.714 19.714 0 0 0 211.448 58.825 Q 211.801 57.534 212.048 56.057 A 34.858 34.858 0 0 0 212.2 55.051 Q 212.7 51.401 212.7 47.001 Z M 301 66.201 L 301 49.501 A 23.194 23.194 0 0 0 296.009 48.72 A 21.213 21.213 0 0 0 295.1 48.701 Q 293.2 48.701 291.5 49.151 A 7.756 7.756 0 0 0 289.31 50.094 A 7.094 7.094 0 0 0 288.55 50.651 A 6.47 6.47 0 0 0 287.091 52.425 A 8.297 8.297 0 0 0 286.6 53.451 Q 286.056 54.811 285.935 56.746 A 18.498 18.498 0 0 0 285.9 57.901 A 14 14 0 0 0 286.112 60.421 Q 286.613 63.154 288.3 64.701 A 7.843 7.843 0 0 0 291.414 66.417 Q 293.037 66.901 295.1 66.901 Q 297.8 66.901 301 66.201 Z M 37.8 42.501 L 53.7 42.501 A 58.08 58.08 0 0 0 53.554 38.236 Q 53.242 34.018 52.268 31.146 A 17.026 17.026 0 0 0 52.2 30.951 A 7.6 7.6 0 0 0 51.099 28.849 Q 49.637 26.936 47.052 26.727 A 8.078 8.078 0 0 0 46.4 26.701 A 6.634 6.634 0 0 0 43.347 27.383 Q 41.323 28.414 40.15 31.001 Q 38.738 34.114 38.139 38.746 A 51.639 51.639 0 0 0 37.8 42.501 Z M 79.7 11.401 Q 77.4 11.401 75.75 9.851 A 5.145 5.145 0 0 1 74.169 6.723 A 7.274 7.274 0 0 1 74.1 5.701 A 6.63 6.63 0 0 1 74.342 3.864 A 5.016 5.016 0 0 1 75.75 1.551 Q 77.4 0.001 79.7 0.001 Q 82 0.001 83.65 1.551 A 5.145 5.145 0 0 1 85.231 4.679 A 7.274 7.274 0 0 1 85.3 5.701 A 6.63 6.63 0 0 1 85.058 7.538 A 5.016 5.016 0 0 1 83.65 9.851 Q 82 11.401 79.7 11.401 Z M 168.1 11.401 Q 165.8 11.401 164.15 9.851 A 5.145 5.145 0 0 1 162.569 6.723 A 7.274 7.274 0 0 1 162.5 5.701 A 6.63 6.63 0 0 1 162.742 3.864 A 5.016 5.016 0 0 1 164.15 1.551 Q 165.8 0.001 168.1 0.001 Q 170.4 0.001 172.05 1.551 A 5.145 5.145 0 0 1 173.631 4.679 A 7.274 7.274 0 0 1 173.7 5.701 A 6.63 6.63 0 0 1 173.458 7.538 A 5.016 5.016 0 0 1 172.05 9.851 Q 170.4 11.401 168.1 11.401 Z" vector-effect="non-scaling-stroke"/>
</g>

</svg>